<mxfile host="65bd71144e">
    <diagram id="I3nHybRVXSGNhCXSqmi8" name="Page-1">
        <mxGraphModel dx="1216" dy="490" grid="1" gridSize="10" guides="1" tooltips="1" connect="1" arrows="1" fold="1" page="1" pageScale="1" pageWidth="850" pageHeight="1100" math="0" shadow="0">
            <root>
                <mxCell id="0"/>
                <mxCell id="1" parent="0"/>
                <mxCell id="6" style="edgeStyle=none;html=1;exitX=0.25;exitY=1;exitDx=0;exitDy=0;endArrow=none;endFill=0;dashed=1;dashPattern=8 8;" parent="1" source="2" edge="1">
                    <mxGeometry relative="1" as="geometry">
                        <mxPoint x="100" y="560" as="targetPoint"/>
                    </mxGeometry>
                </mxCell>
                <mxCell id="2" value="A&lt;sub&gt;L&lt;/sub&gt;" style="rounded=0;whiteSpace=wrap;html=1;" parent="1" vertex="1">
                    <mxGeometry x="80" y="50" width="80" height="40" as="geometry"/>
                </mxCell>
                <mxCell id="3" value="A&lt;sub&gt;D&lt;/sub&gt;" style="rounded=0;whiteSpace=wrap;html=1;" parent="1" vertex="1">
                    <mxGeometry x="240" y="50" width="80" height="40" as="geometry"/>
                </mxCell>
                <mxCell id="4" value="R" style="rounded=0;whiteSpace=wrap;html=1;" parent="1" vertex="1">
                    <mxGeometry x="400" y="50" width="80" height="40" as="geometry"/>
                </mxCell>
                <mxCell id="7" value="" style="rounded=0;whiteSpace=wrap;html=1;" parent="1" vertex="1">
                    <mxGeometry x="95" y="110" width="10" height="430" as="geometry"/>
                </mxCell>
                <mxCell id="8" style="edgeStyle=none;html=1;endArrow=none;endFill=0;dashed=1;dashPattern=8 8;exitX=0.75;exitY=1;exitDx=0;exitDy=0;" parent="1" source="2" edge="1">
                    <mxGeometry relative="1" as="geometry">
                        <mxPoint x="140" y="560" as="targetPoint"/>
                        <mxPoint x="190" y="190" as="sourcePoint"/>
                    </mxGeometry>
                </mxCell>
                <mxCell id="9" style="edgeStyle=none;html=1;exitX=0.25;exitY=1;exitDx=0;exitDy=0;endArrow=none;endFill=0;dashed=1;dashPattern=8 8;" parent="1" source="3" edge="1">
                    <mxGeometry relative="1" as="geometry">
                        <mxPoint x="260" y="430" as="targetPoint"/>
                        <mxPoint x="259.78999999999996" y="90" as="sourcePoint"/>
                    </mxGeometry>
                </mxCell>
                <mxCell id="10" style="edgeStyle=none;html=1;endArrow=none;endFill=0;dashed=1;dashPattern=8 8;exitX=0.75;exitY=1;exitDx=0;exitDy=0;" parent="1" source="3" edge="1">
                    <mxGeometry relative="1" as="geometry">
                        <mxPoint x="300" y="430" as="targetPoint"/>
                        <mxPoint x="299.78999999999996" y="90" as="sourcePoint"/>
                    </mxGeometry>
                </mxCell>
                <mxCell id="11" value="" style="rounded=0;whiteSpace=wrap;html=1;" parent="1" vertex="1">
                    <mxGeometry x="295" y="120" width="10" height="300" as="geometry"/>
                </mxCell>
                <mxCell id="26" value="&lt;font face=&quot;Helvetica&quot;&gt;Execute&amp;nbsp;&lt;/font&gt;&lt;span style=&quot;font-style: italic; text-align: center;&quot;&gt;f&lt;/span&gt;" style="text;html=1;strokeColor=none;fillColor=none;align=right;verticalAlign=middle;whiteSpace=wrap;rounded=0;fontFamily=Times New Roman;fontStyle=0" parent="1" vertex="1">
                    <mxGeometry x="300" y="450" width="100" height="20" as="geometry"/>
                </mxCell>
                <mxCell id="28" style="edgeStyle=none;html=1;endArrow=none;endFill=0;dashed=1;dashPattern=8 8;exitX=0.25;exitY=1;exitDx=0;exitDy=0;" parent="1" source="4" edge="1">
                    <mxGeometry relative="1" as="geometry">
                        <mxPoint x="420" y="560" as="targetPoint"/>
                        <mxPoint x="420" y="100" as="sourcePoint"/>
                    </mxGeometry>
                </mxCell>
                <mxCell id="29" style="edgeStyle=none;html=1;endArrow=none;endFill=0;dashed=1;dashPattern=8 8;exitX=0.75;exitY=1;exitDx=0;exitDy=0;" parent="1" source="4" edge="1">
                    <mxGeometry relative="1" as="geometry">
                        <mxPoint x="460" y="560" as="targetPoint"/>
                        <mxPoint x="460" y="100" as="sourcePoint"/>
                    </mxGeometry>
                </mxCell>
                <mxCell id="30" style="edgeStyle=none;curved=1;html=1;exitX=1;exitY=0.5;exitDx=0;exitDy=0;entryX=0;entryY=0;entryDx=0;entryDy=0;fontFamily=Helvetica;endArrow=classic;endFill=1;" parent="1" source="18" target="11" edge="1">
                    <mxGeometry relative="1" as="geometry">
                        <mxPoint x="105" y="120" as="sourcePoint"/>
                        <mxPoint x="315" y="120.00000000000091" as="targetPoint"/>
                    </mxGeometry>
                </mxCell>
                <mxCell id="27" value="" style="rounded=0;whiteSpace=wrap;html=1;" parent="1" vertex="1">
                    <mxGeometry x="455" y="130" width="10" height="240" as="geometry"/>
                </mxCell>
                <mxCell id="34" value="" style="rounded=0;whiteSpace=wrap;html=1;fontFamily=Helvetica;fillColor=default;" parent="1" vertex="1">
                    <mxGeometry x="290" y="160" width="10" height="30" as="geometry"/>
                </mxCell>
                <mxCell id="36" style="edgeStyle=none;curved=1;html=1;exitX=0;exitY=0.5;exitDx=0;exitDy=0;entryX=0;entryY=0;entryDx=0;entryDy=0;fontFamily=Helvetica;endArrow=classic;endFill=1;" parent="1" source="35" target="34" edge="1">
                    <mxGeometry relative="1" as="geometry">
                        <Array as="points">
                            <mxPoint x="210" y="150"/>
                        </Array>
                    </mxGeometry>
                </mxCell>
                <mxCell id="40" value="" style="rounded=0;whiteSpace=wrap;html=1;fontFamily=Helvetica;fillColor=default;" parent="1" vertex="1">
                    <mxGeometry x="450" y="160" width="10" height="180" as="geometry"/>
                </mxCell>
                <mxCell id="41" style="edgeStyle=none;curved=1;html=1;exitX=0;exitY=0.5;exitDx=0;exitDy=0;entryX=0;entryY=0;entryDx=0;entryDy=0;fontFamily=Helvetica;endArrow=classic;endFill=1;" parent="1" source="37" target="40" edge="1">
                    <mxGeometry relative="1" as="geometry">
                        <Array as="points">
                            <mxPoint x="370" y="150"/>
                        </Array>
                    </mxGeometry>
                </mxCell>
                <mxCell id="43" style="edgeStyle=none;curved=1;html=1;exitX=0;exitY=0.5;exitDx=0;exitDy=0;fontFamily=Helvetica;endArrow=classic;endFill=1;entryX=1;entryY=0;entryDx=0;entryDy=0;" parent="1" source="42" target="44" edge="1">
                    <mxGeometry relative="1" as="geometry">
                        <mxPoint x="200" y="200" as="targetPoint"/>
                    </mxGeometry>
                </mxCell>
                <mxCell id="46" style="edgeStyle=none;curved=1;html=1;exitX=1;exitY=1;exitDx=0;exitDy=0;entryX=0;entryY=0.5;entryDx=0;entryDy=0;fontFamily=Helvetica;endArrow=classic;endFill=1;" parent="1" source="44" target="45" edge="1">
                    <mxGeometry relative="1" as="geometry"/>
                </mxCell>
                <mxCell id="44" value="" style="rounded=0;whiteSpace=wrap;html=1;fontFamily=Helvetica;fillColor=default;" parent="1" vertex="1">
                    <mxGeometry x="135" y="200" width="10" height="30" as="geometry"/>
                </mxCell>
                <mxCell id="47" value="" style="rounded=0;whiteSpace=wrap;html=1;fontFamily=Helvetica;fillColor=default;" parent="1" vertex="1">
                    <mxGeometry x="415" y="240" width="10" height="90" as="geometry"/>
                </mxCell>
                <mxCell id="49" style="edgeStyle=none;curved=1;html=1;exitX=1;exitY=0.5;exitDx=0;exitDy=0;entryX=0;entryY=0;entryDx=0;entryDy=0;fontFamily=Helvetica;endArrow=classic;endFill=1;" parent="1" source="48" target="47" edge="1">
                    <mxGeometry relative="1" as="geometry"/>
                </mxCell>
                <mxCell id="50" value="" style="rounded=0;whiteSpace=wrap;html=1;fontFamily=Helvetica;fillColor=default;" parent="1" vertex="1">
                    <mxGeometry x="290" y="270" width="10" height="130" as="geometry"/>
                </mxCell>
                <mxCell id="52" style="edgeStyle=none;curved=1;html=1;exitX=0;exitY=0.5;exitDx=0;exitDy=0;entryX=0;entryY=0;entryDx=0;entryDy=0;fontFamily=Helvetica;endArrow=classic;endFill=1;" parent="1" source="51" target="50" edge="1">
                    <mxGeometry relative="1" as="geometry">
                        <Array as="points">
                            <mxPoint x="210" y="260"/>
                        </Array>
                    </mxGeometry>
                </mxCell>
                <mxCell id="56" style="edgeStyle=none;curved=1;html=1;fontFamily=Helvetica;endArrow=classic;endFill=1;entryX=0;entryY=0.5;entryDx=0;entryDy=0;exitX=1;exitY=0.5;exitDx=0;exitDy=0;" parent="1" source="59" target="57" edge="1">
                    <mxGeometry relative="1" as="geometry">
                        <mxPoint x="414.76190476190476" y="319.8571428571428" as="targetPoint"/>
                        <mxPoint x="170" y="320" as="sourcePoint"/>
                    </mxGeometry>
                </mxCell>
                <mxCell id="54" value="" style="rounded=0;whiteSpace=wrap;html=1;fontFamily=Helvetica;fillColor=default;" parent="1" vertex="1">
                    <mxGeometry x="135" y="290" width="10" height="70" as="geometry"/>
                </mxCell>
                <mxCell id="55" style="edgeStyle=none;curved=1;html=1;exitX=0;exitY=0.5;exitDx=0;exitDy=0;fontFamily=Helvetica;endArrow=classic;endFill=1;entryX=1;entryY=0;entryDx=0;entryDy=0;" parent="1" source="53" target="54" edge="1">
                    <mxGeometry relative="1" as="geometry">
                        <mxPoint x="180" y="289.8571428571428" as="targetPoint"/>
                    </mxGeometry>
                </mxCell>
                <mxCell id="58" value="" style="rounded=0;whiteSpace=wrap;html=1;fontFamily=Helvetica;fillColor=default;" parent="1" vertex="1">
                    <mxGeometry x="255" y="350" width="10" height="30" as="geometry"/>
                </mxCell>
                <mxCell id="62" style="edgeStyle=none;curved=1;html=1;exitX=1;exitY=0.5;exitDx=0;exitDy=0;fontFamily=Helvetica;endArrow=classic;endFill=1;entryX=0;entryY=0;entryDx=0;entryDy=0;" parent="1" source="61" target="58" edge="1">
                    <mxGeometry relative="1" as="geometry">
                        <mxPoint x="190" y="349.96153846153845" as="targetPoint"/>
                    </mxGeometry>
                </mxCell>
                <mxCell id="65" style="edgeStyle=none;html=1;exitX=1;exitY=0.5;exitDx=0;exitDy=0;entryX=1;entryY=0.5;entryDx=0;entryDy=0;fontFamily=Helvetica;endArrow=classic;endFill=1;curved=1;" parent="1" source="63" target="64" edge="1">
                    <mxGeometry relative="1" as="geometry">
                        <Array as="points">
                            <mxPoint x="350" y="380"/>
                        </Array>
                    </mxGeometry>
                </mxCell>
                <mxCell id="67" style="edgeStyle=none;curved=1;html=1;exitX=0;exitY=0.5;exitDx=0;exitDy=0;fontFamily=Helvetica;endArrow=classic;endFill=1;entryX=1;entryY=0.5;entryDx=0;entryDy=0;" parent="1" source="66" target="68" edge="1">
                    <mxGeometry relative="1" as="geometry">
                        <mxPoint x="130.27777777777777" y="410.05555555555554" as="targetPoint"/>
                    </mxGeometry>
                </mxCell>
                <mxCell id="71" style="edgeStyle=none;curved=1;html=1;exitX=0;exitY=0.5;exitDx=0;exitDy=0;entryX=1;entryY=0.5;entryDx=0;entryDy=0;fontFamily=Helvetica;endArrow=classic;endFill=1;" parent="1" source="70" target="69" edge="1">
                    <mxGeometry relative="1" as="geometry"/>
                </mxCell>
                <mxCell id="73" value="" style="rounded=0;whiteSpace=wrap;html=1;fontFamily=Helvetica;fillColor=default;" parent="1" vertex="1">
                    <mxGeometry x="455" y="440" width="10" height="90" as="geometry"/>
                </mxCell>
                <mxCell id="74" style="edgeStyle=none;curved=1;html=1;exitX=1;exitY=0.5;exitDx=0;exitDy=0;fontFamily=Helvetica;endArrow=classic;endFill=1;entryX=0;entryY=0;entryDx=0;entryDy=0;" parent="1" source="72" target="73" edge="1">
                    <mxGeometry relative="1" as="geometry">
                        <mxPoint x="260" y="440" as="targetPoint"/>
                    </mxGeometry>
                </mxCell>
                <mxCell id="76" value="" style="rounded=0;whiteSpace=wrap;html=1;fontFamily=Helvetica;fillColor=default;" parent="1" vertex="1">
                    <mxGeometry x="450" y="470" width="10" height="30" as="geometry"/>
                </mxCell>
                <mxCell id="77" style="edgeStyle=none;curved=1;html=1;exitX=0;exitY=0.5;exitDx=0;exitDy=0;entryX=0;entryY=0;entryDx=0;entryDy=0;fontFamily=Helvetica;endArrow=classic;endFill=1;" parent="1" source="75" target="76" edge="1">
                    <mxGeometry relative="1" as="geometry">
                        <Array as="points">
                            <mxPoint x="370" y="460"/>
                        </Array>
                    </mxGeometry>
                </mxCell>
                <mxCell id="79" style="edgeStyle=none;curved=1;html=1;exitX=0;exitY=0.5;exitDx=0;exitDy=0;fontFamily=Helvetica;endArrow=classic;endFill=1;entryX=1;entryY=0.5;entryDx=0;entryDy=0;" parent="1" source="78" target="80" edge="1">
                    <mxGeometry relative="1" as="geometry">
                        <mxPoint x="330" y="520" as="targetPoint"/>
                    </mxGeometry>
                </mxCell>
                <mxCell id="83" value="&lt;font face=&quot;Helvetica&quot;&gt;&lt;span style=&quot;&quot;&gt;Wait Terminate&lt;/span&gt;&lt;/font&gt;" style="text;html=1;strokeColor=none;fillColor=none;align=right;verticalAlign=middle;whiteSpace=wrap;rounded=0;fontFamily=Times New Roman;fontStyle=0" parent="1" vertex="1">
                    <mxGeometry x="140" y="250" width="100" height="20" as="geometry"/>
                </mxCell>
                <mxCell id="84" value="f" style="text;html=1;strokeColor=none;fillColor=none;align=center;verticalAlign=middle;whiteSpace=wrap;rounded=0;fontFamily=Times New Roman;fontStyle=2" parent="1" vertex="1">
                    <mxGeometry x="140" y="100" width="120" height="20" as="geometry"/>
                </mxCell>
                <mxCell id="85" value="f" style="text;html=1;strokeColor=none;fillColor=none;align=center;verticalAlign=middle;whiteSpace=wrap;rounded=0;fontFamily=Times New Roman;fontStyle=2" parent="1" vertex="1">
                    <mxGeometry x="300" y="110" width="120" height="20" as="geometry"/>
                </mxCell>
                <mxCell id="86" value="&lt;font face=&quot;Helvetica&quot;&gt;&lt;span style=&quot;font-style: normal;&quot;&gt;Inintialize&amp;nbsp;&lt;/span&gt;&lt;/font&gt;&lt;span style=&quot;text-align: center;&quot;&gt;f&lt;/span&gt;" style="text;html=1;strokeColor=none;fillColor=none;align=right;verticalAlign=middle;whiteSpace=wrap;rounded=0;fontFamily=Times New Roman;fontStyle=2" parent="1" vertex="1">
                    <mxGeometry x="300" y="140" width="100" height="20" as="geometry"/>
                </mxCell>
                <mxCell id="87" value="&lt;font face=&quot;Helvetica&quot;&gt;Request Handover&lt;/font&gt;" style="text;html=1;strokeColor=none;fillColor=none;align=center;verticalAlign=middle;whiteSpace=wrap;rounded=0;fontFamily=Times New Roman;fontStyle=0" parent="1" vertex="1">
                    <mxGeometry x="140" y="180" width="120" height="20" as="geometry"/>
                </mxCell>
                <mxCell id="88" value="&lt;font face=&quot;Helvetica&quot;&gt;Notify Handover&lt;/font&gt;" style="text;html=1;strokeColor=none;fillColor=none;align=center;verticalAlign=middle;whiteSpace=wrap;rounded=0;fontFamily=Times New Roman;fontStyle=0" parent="1" vertex="1">
                    <mxGeometry x="300" y="220" width="120" height="20" as="geometry"/>
                </mxCell>
                <mxCell id="89" value="&lt;font face=&quot;Helvetica&quot;&gt;Handover&lt;/font&gt;" style="text;html=1;strokeColor=none;fillColor=none;align=center;verticalAlign=middle;whiteSpace=wrap;rounded=0;fontFamily=Times New Roman;fontStyle=0" parent="1" vertex="1">
                    <mxGeometry x="300" y="270" width="120" height="20" as="geometry"/>
                </mxCell>
                <mxCell id="90" value="&lt;font face=&quot;Helvetica&quot;&gt;Accept&lt;/font&gt;" style="text;html=1;strokeColor=none;fillColor=none;align=center;verticalAlign=middle;whiteSpace=wrap;rounded=0;fontFamily=Times New Roman;fontStyle=0" parent="1" vertex="1">
                    <mxGeometry x="140" y="300" width="120" height="20" as="geometry"/>
                </mxCell>
                <mxCell id="91" value="&lt;font face=&quot;Helvetica&quot;&gt;Terminate&lt;/font&gt;" style="text;html=1;strokeColor=none;fillColor=none;align=center;verticalAlign=middle;whiteSpace=wrap;rounded=0;fontFamily=Times New Roman;fontStyle=0" parent="1" vertex="1">
                    <mxGeometry x="140" y="330" width="120" height="20" as="geometry"/>
                </mxCell>
                <mxCell id="93" value="&lt;font face=&quot;Helvetica&quot;&gt;Ready&lt;/font&gt;" style="text;html=1;strokeColor=none;fillColor=none;align=center;verticalAlign=middle;whiteSpace=wrap;rounded=0;fontFamily=Times New Roman;fontStyle=0" parent="1" vertex="1">
                    <mxGeometry x="300" y="340" width="120" height="20" as="geometry"/>
                </mxCell>
                <mxCell id="94" value="&lt;font face=&quot;Helvetica&quot;&gt;Ready&lt;/font&gt;" style="text;html=1;strokeColor=none;fillColor=none;align=center;verticalAlign=middle;whiteSpace=wrap;rounded=0;fontFamily=Times New Roman;fontStyle=0" parent="1" vertex="1">
                    <mxGeometry x="140" y="390" width="120" height="20" as="geometry"/>
                </mxCell>
                <mxCell id="95" value="&lt;font face=&quot;Helvetica&quot;&gt;Execute&lt;/font&gt;" style="text;html=1;strokeColor=none;fillColor=none;align=center;verticalAlign=middle;whiteSpace=wrap;rounded=0;fontFamily=Times New Roman;fontStyle=0" parent="1" vertex="1">
                    <mxGeometry x="140" y="420" width="120" height="20" as="geometry"/>
                </mxCell>
                <mxCell id="96" value="&lt;font face=&quot;Helvetica&quot;&gt;&lt;span style=&quot;&quot;&gt;Check Pattern&lt;/span&gt;&lt;/font&gt;" style="text;html=1;strokeColor=none;fillColor=none;align=right;verticalAlign=middle;whiteSpace=wrap;rounded=0;fontFamily=Times New Roman;fontStyle=0" parent="1" vertex="1">
                    <mxGeometry x="140" y="140" width="100" height="20" as="geometry"/>
                </mxCell>
                <mxCell id="97" value="&lt;font face=&quot;Helvetica&quot;&gt;Result&lt;/font&gt;" style="text;html=1;strokeColor=none;fillColor=none;align=center;verticalAlign=middle;whiteSpace=wrap;rounded=0;fontFamily=Times New Roman;fontStyle=0" parent="1" vertex="1">
                    <mxGeometry x="300" y="500" width="120" height="20" as="geometry"/>
                </mxCell>
                <mxCell id="17" value="Anchor" parent="0"/>
                <mxCell id="18" value="" style="rounded=0;whiteSpace=wrap;html=1;fontFamily=Times New Roman;textOpacity=0;fillColor=none;strokeColor=none;" parent="17" vertex="1">
                    <mxGeometry x="95" y="110" width="10" height="20" as="geometry"/>
                </mxCell>
                <mxCell id="32" style="edgeStyle=none;curved=1;html=1;exitX=1;exitY=0.5;exitDx=0;exitDy=0;entryX=0;entryY=0;entryDx=0;entryDy=0;fontFamily=Helvetica;endArrow=classic;endFill=1;" parent="17" source="31" target="27" edge="1">
                    <mxGeometry relative="1" as="geometry"/>
                </mxCell>
                <mxCell id="31" value="" style="rounded=0;whiteSpace=wrap;html=1;fontFamily=Times New Roman;textOpacity=0;fillColor=none;strokeColor=none;" parent="17" vertex="1">
                    <mxGeometry x="295" y="120" width="10" height="20" as="geometry"/>
                </mxCell>
                <mxCell id="35" value="" style="rounded=0;whiteSpace=wrap;html=1;fontFamily=Times New Roman;textOpacity=0;fillColor=none;strokeColor=none;" parent="17" vertex="1">
                    <mxGeometry x="295" y="130" width="10" height="20" as="geometry"/>
                </mxCell>
                <mxCell id="37" value="" style="rounded=0;whiteSpace=wrap;html=1;fontFamily=Times New Roman;textOpacity=0;fillColor=none;strokeColor=none;" parent="17" vertex="1">
                    <mxGeometry x="455" y="130" width="10" height="20" as="geometry"/>
                </mxCell>
                <mxCell id="42" value="" style="rounded=0;whiteSpace=wrap;html=1;fontFamily=Times New Roman;textOpacity=0;fillColor=none;strokeColor=none;" parent="17" vertex="1">
                    <mxGeometry x="295" y="190" width="10" height="20" as="geometry"/>
                </mxCell>
                <mxCell id="45" value="" style="rounded=0;whiteSpace=wrap;html=1;fontFamily=Times New Roman;textOpacity=0;fillColor=none;strokeColor=none;" parent="17" vertex="1">
                    <mxGeometry x="295" y="220" width="10" height="20" as="geometry"/>
                </mxCell>
                <mxCell id="48" value="" style="rounded=0;whiteSpace=wrap;html=1;fontFamily=Times New Roman;textOpacity=0;fillColor=none;strokeColor=none;" parent="17" vertex="1">
                    <mxGeometry x="295" y="230" width="10" height="20" as="geometry"/>
                </mxCell>
                <mxCell id="51" value="" style="rounded=0;whiteSpace=wrap;html=1;fontFamily=Times New Roman;textOpacity=0;fillColor=none;strokeColor=none;" parent="17" vertex="1">
                    <mxGeometry x="295" y="240" width="10" height="20" as="geometry"/>
                </mxCell>
                <mxCell id="53" value="" style="rounded=0;whiteSpace=wrap;html=1;fontFamily=Times New Roman;textOpacity=0;fillColor=none;strokeColor=none;" parent="17" vertex="1">
                    <mxGeometry x="415" y="280" width="10" height="20" as="geometry"/>
                </mxCell>
                <mxCell id="57" value="" style="rounded=0;whiteSpace=wrap;html=1;fontFamily=Times New Roman;textOpacity=0;fillColor=none;strokeColor=none;" parent="17" vertex="1">
                    <mxGeometry x="415" y="310" width="10" height="20" as="geometry"/>
                </mxCell>
                <mxCell id="59" value="" style="rounded=0;whiteSpace=wrap;html=1;fontFamily=Times New Roman;textOpacity=0;fillColor=none;strokeColor=none;" parent="17" vertex="1">
                    <mxGeometry x="135" y="310" width="10" height="20" as="geometry"/>
                </mxCell>
                <mxCell id="61" value="" style="rounded=0;whiteSpace=wrap;html=1;fontFamily=Times New Roman;textOpacity=0;fillColor=none;strokeColor=none;" parent="17" vertex="1">
                    <mxGeometry x="135" y="340" width="10" height="20" as="geometry"/>
                </mxCell>
                <mxCell id="63" value="" style="rounded=0;whiteSpace=wrap;html=1;fontFamily=Times New Roman;textOpacity=0;fillColor=none;strokeColor=none;" parent="17" vertex="1">
                    <mxGeometry x="255" y="360" width="10" height="20" as="geometry"/>
                </mxCell>
                <mxCell id="64" value="" style="rounded=0;whiteSpace=wrap;html=1;fontFamily=Times New Roman;textOpacity=0;fillColor=none;strokeColor=none;" parent="17" vertex="1">
                    <mxGeometry x="290" y="380" width="10" height="20" as="geometry"/>
                </mxCell>
                <mxCell id="66" value="" style="rounded=0;whiteSpace=wrap;html=1;fontFamily=Times New Roman;textOpacity=0;fillColor=none;strokeColor=none;" parent="17" vertex="1">
                    <mxGeometry x="295" y="400" width="10" height="20" as="geometry"/>
                </mxCell>
                <mxCell id="68" value="" style="rounded=0;whiteSpace=wrap;html=1;fontFamily=Times New Roman;textOpacity=0;fillColor=none;strokeColor=none;" parent="17" vertex="1">
                    <mxGeometry x="95" y="400" width="10" height="20" as="geometry"/>
                </mxCell>
                <mxCell id="69" value="" style="rounded=0;whiteSpace=wrap;html=1;fontFamily=Times New Roman;textOpacity=0;fillColor=none;strokeColor=none;" parent="17" vertex="1">
                    <mxGeometry x="295" y="350" width="10" height="20" as="geometry"/>
                </mxCell>
                <mxCell id="70" value="" style="rounded=0;whiteSpace=wrap;html=1;fontFamily=Times New Roman;textOpacity=0;fillColor=none;strokeColor=none;" parent="17" vertex="1">
                    <mxGeometry x="455" y="350" width="10" height="20" as="geometry"/>
                </mxCell>
                <mxCell id="72" value="" style="rounded=0;whiteSpace=wrap;html=1;fontFamily=Times New Roman;textOpacity=0;fillColor=none;strokeColor=none;" parent="17" vertex="1">
                    <mxGeometry x="95" y="430" width="10" height="20" as="geometry"/>
                </mxCell>
                <mxCell id="75" value="" style="rounded=0;whiteSpace=wrap;html=1;fontFamily=Times New Roman;textOpacity=0;fillColor=none;strokeColor=none;" parent="17" vertex="1">
                    <mxGeometry x="455" y="440" width="10" height="20" as="geometry"/>
                </mxCell>
                <mxCell id="78" value="" style="rounded=0;whiteSpace=wrap;html=1;fontFamily=Times New Roman;textOpacity=0;fillColor=none;strokeColor=none;" parent="17" vertex="1">
                    <mxGeometry x="455" y="510" width="10" height="20" as="geometry"/>
                </mxCell>
                <mxCell id="80" value="" style="rounded=0;whiteSpace=wrap;html=1;fontFamily=Times New Roman;textOpacity=0;fillColor=none;strokeColor=none;" parent="17" vertex="1">
                    <mxGeometry x="95" y="510" width="10" height="20" as="geometry"/>
                </mxCell>
                <mxCell id="81" value="" style="rounded=0;whiteSpace=wrap;html=1;fontFamily=Times New Roman;textOpacity=0;fillColor=none;strokeColor=none;" parent="17" vertex="1">
                    <mxGeometry x="95" y="520" width="10" height="20" as="geometry"/>
                </mxCell>
            </root>
        </mxGraphModel>
    </diagram>
</mxfile>
